:version 1.10
:name ASF
:units
  mass 1
  length 1
  angle deg
:documentation
  ASF file generated by Kaydara
:root
  axis xyz
  order  tx ty tz rx ry rz
  position 0 0 0
  orientation 0 0 0
:bonedata
  begin
    id 1
    name SpineDummy
    direction 0.999998 -0.00179978 1.38929e-006
    length 3.60008
    axis 0 0 0 xyz
  end
  begin
    id 2
    name Spine
    direction 0.964365 0.262802 0.0305839
    length 8.13928
    axis 1.33928 -1.75354 15.2838 xyz
    dof rx ry rz
  end
  begin
    id 3
    name Spine1
    direction 0.811168 0.572065 0.12144
    length 7.14954
    axis 2.2224 -6.9761 35.2157 xyz
    dof rx ry rz
  end
  begin
    id 4
    name Neck
    direction 0 0 0
    length 0
    axis 2.2224 -6.9761 35.2157 xyz
    dof rx ry rz
  end
  begin
    id 5
    name HeadDummy
    direction 0.810939 0.572387 0.121455
    length 3.55534
    axis 2.2224 -6.9761 35.2157 xyz
  end
  begin
    id 6
    name Head
    direction 0.998226 -0.000232542 0.0595419
    length 7.35666
    axis -3.03688 -3.41352 -0.0133467 xyz
    dof rx ry rz
  end
  begin
    id 7
    name R_ClavicleDummy
    direction 0.531669 -0.194489 -0.824319
    length 2.49392
    axis 2.2224 -6.9761 35.2157 xyz
  end
  begin
    id 8
    name R_Clavicle
    direction -0.155119 0.0480802 -0.986725
    length 4.485
    axis -54.2764 80.6538 162.779 xyz
    dof rx ry rz
  end
  begin
    id 9
    name R_UpperArm
    direction -0.955567 0.200068 -0.216484
    length 10.1122
    axis -72.9943 12.5026 168.175 xyz
    dof rx ry rz
  end
  begin
    id 10
    name R_Forearm
    direction -0.61433 0.385743 0.688332
    length 9.39148
    axis -117.015 -43.4982 147.875 xyz
    dof rx ry rz
  end
  begin
    id 11
    name R_Hand
    direction -0.699429 0.0170333 0.714499
    length 3.66324
    axis -45.0303 -36.7097 175.478 xyz
    dof rx ry rz
  end
  begin
    id 12
    name L_ClavicleDummy
    direction 0.40287 -0.36502 0.839319
    length 2.49392
    axis 2.2224 -6.9761 35.2157 xyz
  end
  begin
    id 13
    name L_Clavicle
    direction -0.231271 -0.0726419 0.970174
    length 4.485
    axis 18.4357 -75.9711 -162.563 xyz
    dof rx ry rz
  end
  begin
    id 14
    name L_UpperArm
    direction -0.917494 0.144359 0.370629
    length 10.1122
    axis 56.0417 -21.7544 171.058 xyz
    dof rx ry rz
  end
  begin
    id 15
    name L_Forearm
    direction -0.496786 0.615074 -0.612281
    length 9.39148
    axis 89.8094 37.7546 128.927 xyz
    dof rx ry rz
  end
  begin
    id 16
    name L_Hand
    direction -0.409932 0.64962 -0.640274
    length 3.66324
    axis -0.424369 32.133 128.52 xyz
    dof rx ry rz
  end
  begin
    id 17
    name L_ThighDummy
    direction -1.84081e-006 1.87549e-006 1
    length 3.13049
    axis 0 0 0 xyz
  end
  begin
    id 18
    name L_Thigh
    direction -0.947739 0.307978 0.083308
    length 17.9961
    axis 173.219 -4.77873 161.998 xyz
    dof rx ry rz
  end
  begin
    id 19
    name L_Calf
    direction -0.728814 -0.684427 0.0197583
    length 13.3367
    axis 167.331 -1.13214 -136.799 xyz
    dof rx ry rz
  end
  begin
    id 20
    name L_Foot
    direction -0.9028 0.418719 0.0981191
    length 5.8674
    axis 163.436 11.5135 -155.37 xyz
    dof rx ry rz
  end
  begin
    id 21
    name L_Toe0
    direction -0.35341 0.886259 0.299411
    length 4.75286
    axis 169.316 -17.4222 111.74 xyz
    dof rx ry rz
  end
  begin
    id 22
    name R_ThighDummy
    direction 9.32778e-007 -8.82053e-007 -1
    length 3.13049
    axis 0 0 0 xyz
  end
  begin
    id 23
    name R_Thigh
    direction -0.925064 0.37528 -0.0585023
    length 17.9961
    axis -178.698 3.35385 157.919 xyz
    dof rx ry rz
  end
  begin
    id 24
    name R_Calf
    direction -0.68969 -0.718776 -0.0876886
    length 13.3367
    axis -160.504 5.03065 -133.817 xyz
    dof rx ry rz
  end
  begin
    id 25
    name R_Foot
    direction -0.857405 0.418858 -0.299022
    length 5.8674
    axis -161.328 4.38911 -154.413 xyz
    dof rx ry rz
  end
  begin
    id 26
    name R_Toe0
    direction -0.100745 0.952789 -0.286433
    length 4.75286
    axis 171.683 16.6445 96.0359 xyz
    dof rx ry rz
  end
:hierarchy
  begin
    root SpineDummy L_ThighDummy R_ThighDummy
    SpineDummy Spine
    Spine Spine1
    Spine1 Neck
    Neck HeadDummy R_ClavicleDummy L_ClavicleDummy
    HeadDummy Head
    R_ClavicleDummy R_Clavicle
    R_Clavicle R_UpperArm
    R_UpperArm R_Forearm
    R_Forearm R_Hand
    L_ClavicleDummy L_Clavicle
    L_Clavicle L_UpperArm
    L_UpperArm L_Forearm
    L_Forearm L_Hand
    L_ThighDummy L_Thigh
    L_Thigh L_Calf
    L_Calf L_Foot
    L_Foot L_Toe0
    R_ThighDummy R_Thigh
    R_Thigh R_Calf
    R_Calf R_Foot
    R_Foot R_Toe0
  end

:SAMPLES-PER-SECOND 30
:FULLY-SPECIFIED
:DEGREES
32
root  2.47036 28.6768 2.53643 -61.0919 -6.12967 95.1383
Spine  3.83501 11.2352 -5.21023
Spine1  2.8477 -1.71753 2.90465
Neck  3.97569e-016 0 -2.38542e-015
Head  -19.0408 -3.34651 3.85154
R_Clavicle  0.383278 -14.7143 1.57188
R_UpperArm  6.68131 9.79645 19.0595
R_Forearm  24.9392 -22.8289 18.787
R_Hand  -1.52428 8.66433 -22.8884
L_Clavicle  -0.470894 17.8952 2.14102
L_UpperArm  -13.2875 -2.14666 13.3121
L_Forearm  0.521294 18.5231 22.7612
L_Hand  -0.301496 1.62088 -4.69054
L_Thigh  7.04077 4.16096 15.1732
L_Calf  1.65365 1.40975 -10.6189
L_Foot  6.78052 4.76369 21.6774
L_Toe0  0.505156 0.034446 -6.1361
R_Thigh  2.25346 -0.00665303 -12.9836
R_Calf  -6.13352 2.52392 8.03707
R_Foot  4.43526 13.6625 24.8501
R_Toe0  -1.77777 -0.266684 -17.152
33
root  2.03077 28.7552 2.95344 -62.5922 -4.56506 94.1345
Spine  4.79134 11.2184 -3.32357
Spine1  3.50895 -4.58279 2.85946
Neck  3.97569e-016 0 -2.38542e-015
Head  -20.6054 -3.17132 3.2369
R_Clavicle  0.305475 -12.4499 0.834511
R_UpperArm  19.4552 9.2546 17.4945
R_Forearm  14.2622 -34.0358 21.0982
R_Hand  -1.45508 9.54924 -22.2646
L_Clavicle  -0.46918 17.0415 1.46069
L_UpperArm  -19.6046 2.45089 13.2368
L_Forearm  -0.49507 15.7487 19.0018
L_Hand  -0.321624 1.31004 -5.24963
L_Thigh  5.72004 1.58205 15.062
L_Calf  -0.469916 1.29716 -9.75655
L_Foot  6.59306 4.84918 20.8686
L_Toe0  0.505156 0.034446 -6.1361
R_Thigh  -0.950136 -1.90746 -10.8097
R_Calf  -5.05385 2.22822 7.05265
R_Foot  5.39444 15.5363 22.4751
R_Toe0  -1.64098 -0.208865 -15.1785
34
root  1.39154 29.011 3.39483 -63.9269 -2.70217 92.8049
Spine  5.23339 10.7334 -1.11596
Spine1  3.73148 -7.31175 1.58537
Neck  3.97569e-016 0 -2.38542e-015
Head  -21.7163 -3.40175 2.49801
R_Clavicle  0.23811 -10.5949 0.408887
R_UpperArm  37.0608 6.89976 17.1083
R_Forearm  -1.02064 -42.3424 25.3064
R_Hand  -0.841642 11.3074 -18.256
L_Clavicle  -0.463474 16.4573 0.492009
L_UpperArm  -21.3934 6.37175 14.2168
L_Forearm  -4.52684 12.6448 15.0087
L_Hand  -0.380257 1.62147 -5.93241
L_Thigh  3.32037 -1.24302 14.603
L_Calf  -2.1294 1.01125 -7.59697
L_Foot  6.68129 5.8996 19.5784
L_Toe0  0.505156 0.034446 -6.1361
R_Thigh  -4.26831 -4.36399 -8.10536
R_Calf  -4.12266 1.85693 5.89715
R_Foot  5.49405 16.0444 18.0057
R_Toe0  -0.0238715 -0.218667 -12.4946
35
root  0.683714 29.231 3.68835 -64.0987 -1.57388 91.5414
Spine  4.997 10.1825 0.302399
Spine1  3.42355 -8.57643 0.757205
Neck  3.97569e-016 0 -2.38542e-015
Head  -22.4524 -4.09313 1.44277
R_Clavicle  0.238572 -10.5818 0.408957
R_UpperArm  39.3983 4.99928 18.9611
R_Forearm  -2.86823 -43.1213 27.9453
R_Hand  -0.101196 12.8679 -14.2176
L_Clavicle  -0.470203 16.5468 -0.355451
L_UpperArm  -19.2395 8.35946 15.0786
L_Forearm  -7.43003 9.6322 11.2932
L_Hand  -0.440757 1.98938 -6.53475
L_Thigh  0.605421 -3.47924 13.8023
L_Calf  -2.43469 0.755174 -5.66165
L_Foot  7.26144 7.81355 18.8181
L_Toe0  0.505156 0.034446 -6.1361
R_Thigh  -5.98107 -5.77533 -6.44177
R_Calf  0.880674 1.17043 3.76229
R_Foot  3.78497 12.5874 14.2204
R_Toe0  5.10275 -0.635253 -13.716
36
root  -0.0139249 29.4162 3.74603 -62.9437 -1.28529 90.1168
Spine  4.11322 8.74726 -0.0993146
Spine1  2.70476 -7.33083 1.45535
Neck  3.97569e-016 0 -2.38542e-015
Head  -22.7763 -4.87813 0.59323
R_Clavicle  0.271438 -12.2172 0.493943
R_UpperArm  37.2149 3.92389 22.9746
R_Forearm  -1.11194 -42.2028 25.9641
R_Hand  0.147849 12.6727 -12.6642
L_Clavicle  -0.473011 16.5597 -0.800253
L_UpperArm  -15.1524 9.3413 14.7844
L_Forearm  -7.45794 6.87222 7.98898
L_Hand  -0.464949 2.27862 -6.63333
L_Thigh  -1.52182 -5.46351 12.1046
L_Calf  -1.6396 0.538455 -3.97682
L_Foot  8.15981 9.94033 18.8917
L_Toe0  0.505156 0.034446 -6.1361
R_Thigh  -5.91418 -6.23147 -6.15
R_Calf  4.71858 -0.0659977 -0.099319
R_Foot  1.79438 7.49495 9.18493
R_Toe0  10.2913 -1.6808 -10.5465
37
root  -0.694665 29.7724 3.65059 -61.504 -1.14018 88.4342
Spine  3.01355 6.0886 -1.8627
Spine1  1.98894 -4.31168 2.62704
Neck  3.97569e-016 0 -2.38542e-015
Head  -22.6663 -5.47203 0.576736
R_Clavicle  0.304106 -14.5862 0.461382
R_UpperArm  31.2145 2.61846 28.0486
R_Forearm  3.30306 -39.3809 22.6473
R_Hand  -0.192808 10.9379 -14.0218
L_Clavicle  -0.459007 16.1827 -0.729507
L_UpperArm  -9.8538 9.84128 13.3655
L_Forearm  -6.38737 4.76889 5.51612
L_Hand  -0.450609 2.64649 -6.12473
L_Thigh  -2.92121 -7.49956 9.25155
L_Calf  -0.579328 0.136367 -0.92077
L_Foot  8.82583 11.9873 18.3827
L_Toe0  0.506706 0.0345774 -6.151
R_Thigh  -4.22613 -6.20031 -6.67328
R_Calf  2.76634 -1.42304 -4.4058
R_Foot  0.743496 3.79494 4.19235
R_Toe0  13.9062 -2.80066 -8.78902
